<svg width="86" height="30" viewBox="0 0 86 30" fill="none" xmlns="http://www.w3.org/2000/svg">
<path d="M11.1577 17.8977H15.8622L18.2273 20.9403L20.554 23.6506L24.9389 29.1477H19.7741L16.7571 25.4403L15.2102 23.2415L11.1577 17.8977ZM25.3352 13.9091C25.3352 16.7642 24.794 19.1932 23.7116 21.196C22.6378 23.1989 21.1719 24.7287 19.3139 25.7855C17.4645 26.8338 15.3849 27.358 13.0753 27.358C10.7486 27.358 8.66051 26.8295 6.81108 25.7727C4.96165 24.7159 3.5 23.1861 2.42614 21.1832C1.35227 19.1804 0.815341 16.7557 0.815341 13.9091C0.815341 11.054 1.35227 8.625 2.42614 6.62216C3.5 4.61932 4.96165 3.09375 6.81108 2.04545C8.66051 0.988636 10.7486 0.460226 13.0753 0.460226C15.3849 0.460226 17.4645 0.988636 19.3139 2.04545C21.1719 3.09375 22.6378 4.61932 23.7116 6.62216C24.794 8.625 25.3352 11.054 25.3352 13.9091ZM19.723 13.9091C19.723 12.0597 19.446 10.5 18.892 9.23011C18.3466 7.96023 17.5753 6.99716 16.5781 6.34091C15.581 5.68466 14.4134 5.35653 13.0753 5.35653C11.7372 5.35653 10.5696 5.68466 9.57244 6.34091C8.57528 6.99716 7.79972 7.96023 7.24574 9.23011C6.70028 10.5 6.42756 12.0597 6.42756 13.9091C6.42756 15.7585 6.70028 17.3182 7.24574 18.5881C7.79972 19.858 8.57528 20.821 9.57244 21.4773C10.5696 22.1335 11.7372 22.4616 13.0753 22.4616C14.4134 22.4616 15.581 22.1335 16.5781 21.4773C17.5753 20.821 18.3466 19.858 18.892 18.5881C19.446 17.3182 19.723 15.7585 19.723 13.9091ZM45.6076 0.818181H51.1431V17.821C51.1431 19.7301 50.6871 21.4006 49.7752 22.8324C48.8718 24.2642 47.6062 25.3807 45.9783 26.1818C44.3505 26.9744 42.4542 27.3707 40.2894 27.3707C38.1161 27.3707 36.2156 26.9744 34.5877 26.1818C32.9599 25.3807 31.6942 24.2642 30.7908 22.8324C29.8874 21.4006 29.4357 19.7301 29.4357 17.821V0.818181H34.9712V17.348C34.9712 18.3452 35.1886 19.2315 35.6232 20.0071C36.0664 20.7827 36.6886 21.392 37.4897 21.8352C38.2908 22.2784 39.2241 22.5 40.2894 22.5C41.3633 22.5 42.2965 22.2784 43.0891 21.8352C43.8903 21.392 44.5082 20.7827 44.9428 20.0071C45.386 19.2315 45.6076 18.3452 45.6076 17.348V0.818181ZM61.233 0.818181V27H55.6974V0.818181H61.233ZM65.506 27V23.7145L78.5714 5.3821H65.4805V0.818181H85.5259V4.10369L72.4478 22.4361H85.5515V27H65.506Z" fill="black"/>
</svg>
